<svg width="22" height="24" viewBox="0 0 22 24" fill="none" xmlns="http://www.w3.org/2000/svg">
<path d="M15.9294 6.2475C14.5861 4.87537 12.8428 4.12322 10.9935 4.125C7.6652 4.12819 4.79187 6.61772 3.99854 10.0711C3.94079 10.3225 3.73549 10.5 3.49791 10.5H1.03568C0.713496 10.5 0.468746 10.1809 0.528344 9.8355C1.45806 4.44956 5.79275 0.375 11 0.375C13.8552 0.375 16.4481 1.60012 18.3612 3.59461L19.8958 1.92047C20.5455 1.21177 21.6562 1.7137 21.6562 2.71598V9C21.6562 9.62133 21.1946 10.125 20.625 10.125H14.8647C13.9459 10.125 13.4858 8.91323 14.1354 8.20448L15.9294 6.2475V6.2475ZM1.375 13.875H7.13535C8.05411 13.875 8.51421 15.0868 7.86457 15.7955L6.07062 17.7525C7.41391 19.1247 9.15729 19.8769 11.0067 19.875C14.3333 19.8718 17.2077 17.3839 18.0015 13.929C18.0592 13.6776 18.2645 13.5001 18.5021 13.5001H20.9644C21.2865 13.5001 21.5313 13.8192 21.4717 14.1646C20.5419 19.5504 16.2073 23.625 11 23.625C8.14481 23.625 5.55195 22.3999 3.63881 20.4054L2.10418 22.0795C1.45454 22.7882 0.34375 22.2863 0.34375 21.284V15C0.34375 14.3787 0.805449 13.875 1.375 13.875Z" fill="white"/>
</svg>
